<svg width="100%" viewBox="0 0 680 1200" xmlns="http://www.w3.org/2000/svg">
  <defs>
    <marker id="arrow" viewBox="0 0 10 10" refX="8" refY="5" markerWidth="6" markerHeight="6" orient="auto-start-reverse">
      <path d="M2 1L8 5L2 9" fill="none" stroke="#60a5fa" stroke-width="1.5" stroke-linecap="round"/>
    </marker>
  </defs>
  
  <text style="font-size: 18px; font-weight: 500;" x="340" y="30" text-anchor="middle" fill="#f1f5f9">ARC AI AGENTS — System Hierarchy</text>
  
  <!-- Supreme Fea -->
  <rect x="220" y="50" width="240" height="50" rx="8" fill="#667eea" stroke="#667eea" stroke-width="0.5"/>
  <text x="340" y="82" text-anchor="middle" dominant-baseline="central" fill="white" font-weight="600">Supreme Fea</text>
  <text x="340" y="120" text-anchor="middle" fill="#94a3b8" font-size="12">Architect, Controller, Direction</text>
  
  <line x1="340" y1="120" x2="340" y2="150" stroke="#60a5fa" stroke-width="1.5" marker-end="url(#arrow)"/>
  
  <!-- Nova & Flux -->
  <rect x="100" y="150" width="180" height="60" rx="8" fill="#3b82f6" stroke="#3b82f6" stroke-width="0.5"/>
  <text x="190" y="175" text-anchor="middle" dominant-baseline="central" fill="white" font-weight="600">Nova</text>
  <text x="190" y="195" text-anchor="middle" dominant-baseline="central" fill="white" font-size="12">Gateway & Intake</text>
  
  <rect x="400" y="150" width="180" height="60" rx="8" fill="#14b8a6" stroke="#14b8a6" stroke-width="0.5"/>
  <text x="490" y="175" text-anchor="middle" dominant-baseline="central" fill="white" font-weight="600">Flux</text>
  <text x="490" y="195" text-anchor="middle" dominant-baseline="central" fill="white" font-size="12">Orchestration</text>
  
  <line x1="300" y1="100" x2="190" y2="150" stroke="#60a5fa" stroke-width="1.5" marker-end="url(#arrow)"/>
  <line x1="380" y1="100" x2="490" y2="150" stroke="#60a5fa" stroke-width="1.5" marker-end="url(#arrow)"/>
  <path d="M 280 180 L 400 180" stroke="#60a5fa" stroke-width="1.5" marker-end="url(#arrow)"/>
  
  <!-- Omni Areas -->
  <text style="font-size: 12px; font-weight: 500;" x="340" y="265" text-anchor="middle" fill="#f1f5f9">5 Omni Areas with Leaders</text>
  <line x1="340" y1="230" x2="340" y2="270" stroke="#60a5fa" stroke-width="1.5" marker-end="url(#arrow)"/>
  
  <!-- Omni Boxes -->
  <rect x="30" y="280" width="100" height="50" rx="6" fill="#f97316" stroke="#f97316" stroke-width="0.5"/>
  <text x="80" y="302" text-anchor="middle" dominant-baseline="central" fill="white" font-weight="600">Helix</text>
  <text x="80" y="318" text-anchor="middle" dominant-baseline="central" fill="white" font-size="11">Tech</text>
  <text x="80" y="345" text-anchor="middle" fill="#94a3b8" font-size="11">Cortexia (Lead)</text>
  <text x="80" y="362" text-anchor="middle" fill="#94a3b8" font-size="11">5 Sentinels</text>
  
  <rect x="160" y="280" width="100" height="50" rx="6" fill="#f97316" stroke="#f97316" stroke-width="0.5"/>
  <text x="210" y="302" text-anchor="middle" dominant-baseline="central" fill="white" font-weight="600">Matrix</text>
  <text x="210" y="318" text-anchor="middle" dominant-baseline="central" fill="white" font-size="11">Intelligence</text>
  <text x="210" y="345" text-anchor="middle" fill="#94a3b8" font-size="11">Saelia (Lead)</text>
  <text x="210" y="362" text-anchor="middle" fill="#94a3b8" font-size="11">5 Sentinels</text>
  
  <rect x="290" y="280" width="100" height="50" rx="6" fill="#f97316" stroke="#f97316" stroke-width="0.5"/>
  <text x="340" y="302" text-anchor="middle" dominant-baseline="central" fill="white" font-weight="600">Finix</text>
  <text x="340" y="318" text-anchor="middle" dominant-baseline="central" fill="white" font-size="11">Finance</text>
  <text x="340" y="345" text-anchor="middle" fill="#94a3b8" font-size="11">Finoria (Lead)</text>
  <text x="340" y="362" text-anchor="middle" fill="#94a3b8" font-size="11">5 Sentinels</text>
  
  <rect x="420" y="280" width="100" height="50" rx="6" fill="#f97316" stroke="#f97316" stroke-width="0.5"/>
  <text x="470" y="302" text-anchor="middle" dominant-baseline="central" fill="white" font-weight="600">Quantix</text>
  <text x="470" y="318" text-anchor="middle" dominant-baseline="central" fill="white" font-size="11">Operations</text>
  <text x="470" y="345" text-anchor="middle" fill="#94a3b8" font-size="11">Lumeria (Lead)</text>
  <text x="470" y="362" text-anchor="middle" fill="#94a3b8" font-size="11">5 Sentinels</text>
  
  <rect x="550" y="280" width="100" height="50" rx="6" fill="#f97316" stroke="#f97316" stroke-width="0.5"/>
  <text x="600" y="302" text-anchor="middle" dominant-baseline="central" fill="white" font-weight="600">Zenix</text>
  <text x="600" y="318" text-anchor="middle" dominant-baseline="central" fill="white" font-size="11">Language</text>
  <text x="600" y="345" text-anchor="middle" fill="#94a3b8" font-size="11">Fluentia (Lead)</text>
  <text x="600" y="362" text-anchor="middle" fill="#94a3b8" font-size="11">5 Sentinels</text>
  
  <!-- Arrows to Omnis -->
  <line x1="490" y1="210" x2="80" y2="280" stroke="#60a5fa" stroke-width="0.8" marker-end="url(#arrow)"/>
  <line x1="490" y1="210" x2="210" y2="280" stroke="#60a5fa" stroke-width="0.8" marker-end="url(#arrow)"/>
  <line x1="490" y1="210" x2="340" y2="280" stroke="#60a5fa" stroke-width="0.8" marker-end="url(#arrow)"/>
  <line x1="490" y1="210" x2="470" y2="280" stroke="#60a5fa" stroke-width="0.8" marker-end="url(#arrow)"/>
  <line x1="490" y1="210" x2="600" y2="280" stroke="#60a5fa" stroke-width="0.8" marker-end="url(#arrow)"/>
  
  <!-- Helix Detail -->
  <text style="font-size: 12px; font-weight: 500;" x="340" y="420" text-anchor="middle" fill="#f1f5f9">Detailed: Helix Omni Structure</text>
  
  <rect x="50" y="440" width="580" height="200" rx="8" fill="none" stroke="#64748b" stroke-width="1" stroke-dasharray="4,4"/>
  <text x="70" y="460" fill="#94a3b8" font-size="11">~/arc_ai_angels/agents/omni/helix/</text>
  
  <!-- Cortexia Lead -->
  <rect x="80" y="480" width="160" height="50" rx="6" fill="#3b82f6" stroke="#3b82f6" stroke-width="0.5"/>
  <text x="160" y="502" text-anchor="middle" dominant-baseline="central" fill="white" font-weight="600">Cortexia</text>
  <text x="160" y="520" text-anchor="middle" dominant-baseline="central" fill="white" font-size="11">Omni Leader</text>
  
  <!-- Sentinels -->
  <text x="70" y="560" fill="#94a3b8" font-size="11">Sentinels/ (5 containers)</text>
  
  <rect x="70" y="575" width="55" height="40" rx="6" fill="#a855f7" stroke="#a855f7" stroke-width="0.5"/>
  <text x="97" y="592" text-anchor="middle" dominant-baseline="central" fill="white" font-weight="600" font-size="12">Nero</text>
  
  <rect x="135" y="575" width="55" height="40" rx="6" fill="#a855f7" stroke="#a855f7" stroke-width="0.5"/>
  <text x="162" y="592" text-anchor="middle" dominant-baseline="central" fill="white" font-weight="600" font-size="12">Forge</text>
  
  <rect x="200" y="575" width="55" height="40" rx="6" fill="#a855f7" stroke="#a855f7" stroke-width="0.5"/>
  <text x="227" y="592" text-anchor="middle" dominant-baseline="central" fill="white" font-weight="600" font-size="12">Axon</text>
  
  <rect x="265" y="575" width="55" height="40" rx="6" fill="#a855f7" stroke="#a855f7" stroke-width="0.5"/>
  <text x="292" y="592" text-anchor="middle" dominant-baseline="central" fill="white" font-weight="600" font-size="12">Ventura</text>
  
  <rect x="330" y="575" width="55" height="40" rx="6" fill="#a855f7" stroke="#a855f7" stroke-width="0.5"/>
  <text x="357" y="592" text-anchor="middle" dominant-baseline="central" fill="white" font-weight="600" font-size="12">Clio</text>
  
  <!-- Arrows from Cortexia to Sentinels -->
  <line x1="160" y1="530" x2="97" y2="575" stroke="#60a5fa" stroke-width="0.8" marker-end="url(#arrow)"/>
  <line x1="160" y1="530" x2="162" y2="575" stroke="#60a5fa" stroke-width="0.8" marker-end="url(#arrow)"/>
  <line x1="160" y1="530" x2="227" y2="575" stroke="#60a5fa" stroke-width="0.8" marker-end="url(#arrow)"/>
  <line x1="160" y1="530" x2="292" y2="575" stroke="#60a5fa" stroke-width="0.8" marker-end="url(#arrow)"/>
  <line x1="160" y1="530" x2="357" y2="575" stroke="#60a5fa" stroke-width="0.8" marker-end="url(#arrow)"/>
  
  <!-- Summary -->
  <text style="font-size: 12px; font-weight: 500;" x="340" y="700" text-anchor="middle" fill="#f1f5f9">System Summary</text>
  
  <rect x="50" y="720" width="600" height="100" rx="4" fill="rgba(30, 41, 59, 0.6)" stroke="rgba(100, 116, 139, 0.3)" stroke-width="0.5"/>
  
  <text x="70" y="745" fill="#f1f5f9" font-weight="600" font-size="13">Core Structure: 32 Agents</text>
  <text x="70" y="762" fill="#cbd5e1" font-size="12">Nova (Gateway) + Flux (Orchestration) + 5 Omni Leads + 25 Sentinels</text>
  
  <text x="70" y="790" fill="#f1f5f9" font-weight="600" font-size="13">Each Omni: 1 Leader + 5 Sentinels (expandable to 12 sentinels each)</text>
  <text x="70" y="807" fill="#cbd5e1" font-size="12">Current: 25 sentinels | Max: 60 sentinels | Target: 158 agents</text>
</svg>
